<svg width="40" height="40" viewBox="0 0 40 40" fill="none" xmlns="http://www.w3.org/2000/svg">
<path d="M32.6159 21.9016C32.0217 21.4658 31.6667 20.7658 31.6667 20.0283C31.6667 19.2908 32.0217 18.5908 32.6151 18.1558L35.3601 16.1433C35.7976 15.8217 35.9784 15.2558 35.8076 14.74C35.1009 12.6167 33.9834 10.68 32.4851 8.98248C32.1242 8.57582 31.5426 8.44748 31.0451 8.66582L27.9542 10.025C27.2809 10.3217 26.4967 10.2792 25.8576 9.90998C25.2192 9.54165 24.7909 8.88498 24.7101 8.15248L24.3384 4.75915C24.2792 4.21915 23.8776 3.77915 23.3459 3.66998C21.1817 3.22748 18.9076 3.21998 16.7051 3.66165C16.1701 3.76915 15.7676 4.20915 15.7084 4.75165L15.3401 8.12332C15.2592 8.85665 14.8309 9.51332 14.1909 9.88165C13.5526 10.25 12.7709 10.2942 12.0951 9.99665L8.98758 8.62998C8.49425 8.41165 7.91091 8.53832 7.55008 8.94415C6.04675 10.635 4.92425 12.5692 4.21008 14.6908C4.03675 15.2058 4.21675 15.775 4.65591 16.0975L7.38341 18.0975C7.97841 18.5342 8.33341 19.2341 8.33341 19.9717C8.33341 20.7092 7.97841 21.4091 7.38508 21.8442L4.64008 23.8567C4.20258 24.1783 4.02175 24.7442 4.19258 25.26C4.89925 27.3833 6.01675 29.32 7.51508 31.0175C7.87591 31.425 8.45925 31.5541 8.95508 31.3342L12.0459 29.975C12.7192 29.6783 13.5026 29.7208 14.1426 30.09C14.7809 30.4583 15.2092 31.115 15.2901 31.8475L15.6617 35.2408C15.7209 35.7808 16.1226 36.2208 16.6542 36.33C17.7492 36.5533 18.8742 36.6666 20.0001 36.6666C21.0984 36.6666 22.2067 36.5558 23.2942 36.3375C23.8292 36.23 24.2317 35.79 24.2909 35.2475L24.6601 31.8758C24.7409 31.1425 25.1692 30.4858 25.8092 30.1175C26.4476 29.75 27.2301 29.7066 27.9051 30.0025L31.0126 31.3692C31.5076 31.5883 32.0892 31.4616 32.4501 31.055C33.9534 29.3641 35.0759 27.43 35.7901 25.3083C35.9634 24.7933 35.7834 24.2241 35.3442 23.9016L32.6159 21.9016ZM20.0001 25.8333C16.7784 25.8333 14.1667 23.2217 14.1667 20C14.1667 16.7783 16.7784 14.1667 20.0001 14.1667C23.2217 14.1667 25.8334 16.7783 25.8334 20C25.8334 23.2217 23.2217 25.8333 20.0001 25.8333Z" fill="white"/>
</svg>
