<svg width="53" height="33" viewBox="0 0 53 33" fill="none" xmlns="http://www.w3.org/2000/svg">
<path d="M53 20.4988C53 18.5266 51.4134 16.9279 49.4563 16.9279C47.4992 16.9279 45.9126 18.5266 45.9126 20.4988V29.4234C45.9126 31.3956 47.4992 32.9944 49.4563 32.9944C51.4134 32.9944 53 31.3956 53 29.4234V20.4988Z" fill="white"/>
<path d="M7.08736 24.9443C7.08736 22.9721 5.5008 21.3733 3.54368 21.3733C1.58656 21.3733 0 22.9721 0 24.9443V29.4234C0 31.3956 1.58656 32.9944 3.54368 32.9944C5.5008 32.9944 7.08736 31.3956 7.08736 29.4234V24.9443Z" fill="white"/>
<path d="M38.0333 0C36.0649 0 34.4683 1.74336 34.4683 3.89492L34.5185 22.6897C34.5185 24.0361 33.5203 25.124 32.288 25.124C31.0556 25.124 30.0575 24.0323 30.0575 22.6897V16.3998C30.0092 14.2951 28.4348 12.6042 26.498 12.6042C24.6783 12.6042 23.1802 14.1022 22.9664 16.0178V22.6897C22.9664 24.0361 21.9683 25.124 20.7359 25.124C19.5036 25.124 18.5055 24.0323 18.5055 22.6897L18.5315 8.70737C18.5315 6.55581 16.9348 4.81245 14.9664 4.81245C12.998 4.81245 11.4014 6.55581 11.4014 8.70737V29.723C11.4014 31.5319 12.7434 32.9981 14.3976 32.9981H38.6002C40.2545 32.9981 41.5965 31.5319 41.5965 29.723C41.5965 29.708 41.5965 29.6931 41.5965 29.6781C41.5965 29.6631 41.5965 3.89304 41.5965 3.89304C41.5965 1.73774 40.0017 0 38.0333 0Z" fill="white"/>
</svg>
