<svg width="149" height="32" viewBox="0 0 149 32" fill="none" xmlns="http://www.w3.org/2000/svg">
<path d="M54.9766 9.21484C54.9766 8.78516 55.1654 8.40755 55.543 8.08203C55.9206 7.75651 56.3242 7.59375 56.7539 7.59375C57.1966 7.59375 57.5872 7.71745 57.9258 7.96484C58.2773 8.21224 58.5052 8.51823 58.6094 8.88281L62.5156 22.1445L67.1445 9.13672H67.1641C67.4896 8.5638 68.0625 8.27734 68.8828 8.27734C69.2604 8.27734 69.612 8.36198 69.9375 8.53125C70.263 8.6875 70.4909 8.89583 70.6211 9.15625V9.17578L75.1133 21.832L78.7266 8.90234C78.8307 8.55078 79.0456 8.24479 79.3711 7.98438C79.6966 7.72396 80.0938 7.59375 80.5625 7.59375C80.9792 7.59375 81.3828 7.75 81.7734 8.0625C82.1641 8.36198 82.3594 8.73958 82.3594 9.19531C82.3594 9.48177 82.3333 9.70964 82.2812 9.87891L77.1641 27.9258C77.0729 28.2513 76.8581 28.5573 76.5195 28.8438C76.194 29.1172 75.8164 29.2539 75.3867 29.2539C74.9831 29.2539 74.6185 29.1432 74.293 28.9219C73.9805 28.6875 73.7591 28.4141 73.6289 28.1016L68.9023 15.0352L64.0977 28.2188C63.9674 28.5703 63.7331 28.8503 63.3945 29.0586C63.069 29.2799 62.7109 29.3906 62.3203 29.3906C61.9167 29.3906 61.5456 29.2669 61.207 29.0195C60.8815 28.7721 60.6667 28.4661 60.5625 28.1016L55.0352 9.89844C54.9961 9.70312 54.9766 9.47526 54.9766 9.21484ZM94.5273 7.51562C95.4909 7.51562 96.4284 7.71094 97.3398 8.10156C98.2643 8.47917 99.0846 8.96094 99.8008 9.54688C100.53 10.1198 101.07 10.7122 101.422 11.3242L101.637 9.44922C101.637 8.91536 101.793 8.45964 102.105 8.08203C102.418 7.69141 102.841 7.49609 103.375 7.49609C103.909 7.49609 104.365 7.69141 104.742 8.08203C105.133 8.45964 105.328 8.91536 105.328 9.44922V9.48828L105.289 27.5742C105.289 28.1081 105.094 28.5703 104.703 28.9609C104.326 29.3385 103.87 29.5273 103.336 29.5273C102.802 29.5273 102.379 29.3385 102.066 28.9609C101.754 28.5703 101.598 28.1081 101.598 27.5742L101.383 26.0117C100.706 27.1706 99.7161 28.0365 98.4141 28.6094C97.112 29.1693 95.8034 29.4492 94.4883 29.4492C93.0169 29.4492 91.6367 29.1628 90.3477 28.5898C89.0586 28.0039 87.9258 27.2031 86.9492 26.1875C85.9727 25.1719 85.2044 24.0065 84.6445 22.6914C84.0977 21.3763 83.8242 19.9896 83.8242 18.5312C83.8242 17.0859 84.0911 15.7057 84.625 14.3906C85.1719 13.0625 85.9271 11.8841 86.8906 10.8555C87.8672 9.8138 89 9 90.2891 8.41406C91.5911 7.8151 93.0039 7.51562 94.5273 7.51562ZM101.266 18.4922C101.266 17.2161 100.966 16.0443 100.367 14.9766C99.7812 13.9089 98.9805 13.0495 97.9648 12.3984C96.9492 11.7474 95.7904 11.4219 94.4883 11.4219C93.2122 11.4219 92.0599 11.7474 91.0312 12.3984C90.0026 13.0495 89.1888 13.9154 88.5898 14.9961C87.9909 16.0638 87.6914 17.2227 87.6914 18.4727C87.6914 19.7357 87.9974 20.9076 88.6094 21.9883C89.2214 23.056 90.0417 23.9154 91.0703 24.5664C92.112 25.2174 93.2578 25.543 94.5078 25.543C95.7578 25.543 96.8906 25.2174 97.9062 24.5664C98.9349 23.9154 99.7487 23.056 100.348 21.9883C100.96 20.9076 101.266 19.7422 101.266 18.4922ZM125.445 7.61328C125.914 7.61328 126.337 7.80208 126.715 8.17969C127.105 8.55729 127.301 8.97396 127.301 9.42969C127.301 9.83333 127.236 10.1654 127.105 10.4258L118.863 28.2578C118.512 29 117.913 29.3711 117.066 29.3711C116.194 29.3711 115.608 28.974 115.309 28.1797L107.926 10.3477C107.822 10.1263 107.77 9.82031 107.77 9.42969C107.77 9.01302 107.945 8.60938 108.297 8.21875C108.661 7.8151 109.065 7.61328 109.508 7.61328C110.523 7.61328 111.201 8.01693 111.539 8.82422L117.223 22.6523L123.57 8.74609C123.922 7.99089 124.547 7.61328 125.445 7.61328ZM138.18 7.67188C139.911 7.67188 141.5 8.10156 142.945 8.96094C144.391 9.82031 145.549 10.9792 146.422 12.4375C147.307 13.8828 147.75 15.4909 147.75 17.2617C147.75 17.6263 147.73 17.9974 147.691 18.375C147.639 18.8568 147.418 19.2669 147.027 19.6055C146.65 19.931 146.22 20.0938 145.738 20.0938L132.086 20.1133C132.307 21.0508 132.724 21.9297 133.336 22.75C133.948 23.5703 134.69 24.2344 135.562 24.7422C136.448 25.25 137.411 25.5039 138.453 25.5039C139.573 25.5039 140.576 25.2305 141.461 24.6836C142.346 24.1367 143.036 23.5052 143.531 22.7891C143.688 22.5417 143.922 22.3333 144.234 22.1641C144.56 21.9948 144.866 21.9102 145.152 21.9102C145.686 21.9102 146.142 22.1055 146.52 22.4961C146.91 22.8867 147.105 23.349 147.105 23.8828C147.105 24.2995 146.988 24.6706 146.754 24.9961C145.947 26.181 144.833 27.2096 143.414 28.082C142.008 28.9414 140.374 29.3711 138.512 29.3711C137.014 29.3711 135.621 29.0781 134.332 28.4922C133.056 27.9062 131.943 27.1055 130.992 26.0898C130.042 25.0742 129.299 23.9089 128.766 22.5938C128.245 21.2656 127.984 19.8659 127.984 18.3945C127.984 16.9753 128.245 15.6276 128.766 14.3516C129.286 13.0625 130.009 11.9167 130.934 10.9141C131.871 9.91146 132.958 9.1237 134.195 8.55078C135.432 7.96484 136.76 7.67188 138.18 7.67188ZM143.727 16.1875C143.479 14.9115 142.841 13.8242 141.812 12.9258C140.784 12.0273 139.573 11.5781 138.18 11.5781C136.76 11.5781 135.504 12.0404 134.41 12.9648C133.329 13.8893 132.6 14.9701 132.223 16.207L143.727 16.1875Z" fill="white"/>
<g clip-path="url(#clip0_1353_649)">
<path d="M50.8789 19.6839C50.8789 17.7906 49.3558 16.2559 47.4771 16.2559C45.5983 16.2559 44.0752 17.7906 44.0752 19.6839V28.2513C44.0752 30.1446 45.5983 31.6793 47.4771 31.6793C49.3558 31.6793 50.8789 30.1446 50.8789 28.2513V19.6839Z" fill="white"/>
<path d="M6.8037 23.9512C6.8037 22.058 5.28064 20.5232 3.40185 20.5232C1.52306 20.5232 0 22.058 0 23.9512V28.2511C0 30.1444 1.52306 31.6791 3.40185 31.6791C5.28064 31.6791 6.8037 30.1444 6.8037 28.2511V23.9512Z" fill="white"/>
<path d="M36.5114 0.00537109C34.6218 0.00537109 33.089 1.67895 33.089 3.7444L33.1372 21.787C33.1372 23.0795 32.179 24.1239 30.996 24.1239C29.813 24.1239 28.8548 23.0759 28.8548 21.787V15.7488C28.8084 13.7283 27.297 12.1051 25.4377 12.1051C23.6909 12.1051 22.2527 13.5432 22.0475 15.3821V21.787C22.0475 23.0795 21.0893 24.1239 19.9063 24.1239C18.7233 24.1239 17.7651 23.0759 17.7651 21.787L17.7901 8.36425C17.7901 6.2988 16.2573 4.62522 14.3677 4.62522C12.4781 4.62522 10.9453 6.2988 10.9453 8.36425V28.5388C10.9453 30.2753 12.2336 31.6828 13.8217 31.6828H37.0556C38.6437 31.6828 39.932 30.2753 39.932 28.5388C39.932 28.5244 39.932 28.51 39.932 28.4957C39.932 28.4813 39.932 3.74261 39.932 3.74261C39.932 1.67356 38.401 0.00537109 36.5114 0.00537109Z" fill="white"/>
</g>
<defs>
<clipPath id="clip0_1353_649">
<rect width="50.8788" height="31.6792" fill="white"/>
</clipPath>
</defs>
</svg>
